<svg width="12" height="13" viewBox="0 0 12 13" fill="none" xmlns="http://www.w3.org/2000/svg">
<path d="M7.93816 7.85585C9.26296 7.15825 10.1663 5.76795 10.1663 4.16665C10.1663 1.8655 8.30076 0 5.99956 0C3.69841 0 1.83291 1.8655 1.83291 4.16665C1.83291 5.768 2.73626 7.1584 4.06116 7.85595C2.28691 8.53195 0.932158 10.1092 0.512508 12.0529C0.454458 12.3219 0.602459 12.5981 0.873409 12.6471C1.84581 12.8231 3.45616 13 6.00061 13C8.54501 13 10.1554 12.8231 11.1278 12.6471C11.3977 12.5983 11.5454 12.3231 11.4876 12.0551C11.0685 10.1103 9.71326 8.53205 7.93816 7.85585Z" fill="#637381"/>
</svg>
